<svg height="512pt" viewBox="0 0 512 512" width="512pt" xmlns="http://www.w3.org/2000/svg"><path d="m512 185.515625h-57.257812v-185.515625h-397.484376v185.515625h-57.257812v83.386719l23.300781 13.5v229.597656h465.398438v-229.9375l23.300781-12.992188zm-30 65.828125-47.136719 26.289062-45.101562-26.125v-35.871093h92.238281zm-332.078125-35.707031h89.917969v35.871093l-44.957032 26.042969-44.960937-26.042969zm119.917969 0h89.921875v35.871093l-44.960938 26.042969-44.960937-26.039062zm-182.582032-185.519531h337.480469v155.398437h-337.480469zm-57.257812 185.519531h89.921875v35.871093l-44.960937 26.042969-44.960938-26.042969zm264 266.246093h-76v-116.203124h76zm164.699219 0h-134.699219v-146.324218h-136v146.324218h-134.699219v-182.105468l21.660157 12.546875 59.960937-34.730469 59.960937 34.730469 59.957032-34.730469 59.960937 34.730469 59.960938-34.730469 59.820312 34.648438 24.113281-13.449219v183.089843zm0 0"/><path d="m77.867188 422.339844h84.132812v-86.78125h-84.132812zm30-56.660156h24.132812v26.539062h-24.132812zm0 0"/><path d="m347.867188 422.339844h84.132812v-86.78125h-84.132812zm30-56.660156h24.132812v26.539062h-24.132812zm0 0"/><path d="m271.039062 438.839844c7.847657 0 15.363282-6.925782 15-15.058594-.363281-8.160156-6.589843-15.0625-15-15.0625-7.84375 0-15.363281 6.929688-15 15.0625.363282 8.15625 6.589844 15.058594 15 15.058594zm0 0"/><path d="m109.480469 133.480469 7.15625-16.199219c6.21875 3.671875 14.503906 6.027344 21.757812 6.027344 6.308594 0 8.570313-1.320313 8.570313-3.578125 0-8.289063-36.449219-1.601563-36.449219-26.183594 0-12.242187 10.265625-22.226563 30.703125-22.226563 8.851562 0 17.988281 1.882813 24.863281 5.746094l-6.6875 16.105469c-6.5-3.296875-12.621093-4.898437-18.367187-4.898437-6.496094 0-8.566406 1.882812-8.566406 4.144531 0 7.910156 36.445312 1.316406 36.445312 25.617187 0 12.054688-10.265625 22.226563-30.703125 22.226563-11.015625 0-22.128906-2.730469-28.722656-6.78125zm0 0"/><path d="m242.835938 72.832031v65.921875h-22.226563v-24.296875h-20.53125v24.296875h-22.226563v-65.921875h22.226563v23.355469h20.53125v-23.355469zm0 0"/><path d="m253.285156 105.792969c0-19.96875 15.730469-34.46875 37.199219-34.46875 21.472656 0 37.203125 14.5 37.203125 34.46875 0 19.964843-15.730469 34.46875-37.203125 34.46875-21.46875 0-37.199219-14.503907-37.199219-34.46875zm51.988282 0c0-10.265625-6.59375-16.480469-14.789063-16.480469-8.191406 0-14.785156 6.214844-14.785156 16.480469s6.59375 16.480469 14.785156 16.480469c8.195313 0 14.789063-6.214844 14.789063-16.480469zm0 0"/><path d="m399.917969 97.691406c0 15.257813-11.675781 24.863282-30.039063 24.863282h-9.515625v16.199218h-22.222656v-65.921875h31.738281c18.363282 0 30.039063 9.605469 30.039063 24.859375zm-22.414063 0c0-4.800781-2.917968-7.71875-9.039062-7.71875h-8.101563v15.441406h8.101563c6.121094 0 9.039062-2.917968 9.039062-7.722656zm0 0"/></svg>