<svg height="480pt" viewBox="0 -9 480 480" width="480pt" xmlns="http://www.w3.org/2000/svg"><path d="m208 110.398438h24v-57.597657l-24 14.398438zm0 0"/><path d="m248 110.398438h24v-43.199219l-24-14.398438zm0 0"/><path d="m240 310.398438h32v16h-32zm0 0"/><path d="m240 246.398438h32v16h-32zm0 0"/><path d="m336 182.398438h32v16h-32zm0 0"/><path d="m336 310.398438h32v16h-32zm0 0"/><path d="m336 246.398438h32v16h-32zm0 0"/><path d="m240 182.398438h32v16h-32zm0 0"/><path d="m120 414.398438h16v16h-16zm0 0"/><path d="m440 446.398438v-331.199219l-200-115.199219-200 115.199219v331.199219h-40v16h480v-16zm-128-280h72.800781c4 0 7.199219 4 7.199219 8v40h-80zm0 64h80v48h-80zm0 64h80v48h-80zm-96-16v-48h80v48zm80 16v48h-80v-48zm-80-80v-40c0-4 3.199219-8 7.199219-8h72.800781v48zm-24-156.796876 48-28.800781 48 28.800781v68.796876h-96zm-69.601562 184.796876c1.601562-2.398438 4-4 7.203124-4h38.398438v-16h16v120h-114.398438zm5.601562 204c-13.601562 0-24-10.398438-24-24 0-13.597657 10.398438-24 24-24s24 10.402343 24 24c0 13.601562-10.398438 24-24 24zm208 0c-13.601562 0-24-10.398438-24-24 0-13.597657 10.398438-24 24-24s24 10.402343 24 24c0 13.601562-10.398438 24-24 24zm80-40c0 4.800781-3.199219 8-8 8h-32.800781c-4.800781-21.597657-25.597657-36-47.199219-31.199219-16 3.199219-28 15.199219-31.199219 31.199219h-129.601562c-4.800781-21.597657-25.597657-36-47.199219-31.199219-16 3.199219-28 15.199219-31.199219 31.199219h-16.800781c-4.800781 0-8-3.199219-8-8v-48h344c4.800781 0 8 3.203124 8 8zm0 0"/><path d="m328 414.398438h16v16h-16zm0 0"/></svg>